<?xml version="1.0" encoding="utf-8"?>
<!-- Generator: Adobe Illustrator 25.3.1, SVG Export Plug-In . SVG Version: 6.00 Build 0)  -->
<svg version="1.1" id="Layer_1" xmlns="http://www.w3.org/2000/svg" xmlns:xlink="http://www.w3.org/1999/xlink" x="0px" y="0px"
	 viewBox="0 0 100 100" style="enable-background:new 0 0 100 100;" xml:space="preserve">
<style type="text/css">
	.st0{fill:#C90000;}
	.st1{fill:#FFFFFF;}
	.st2{fill:#353535;}
</style>
<path class="st0" d="M83.4,82.8c8.7-8.7,13.5-20.5,13.5-32.8c0-25.9-21-46.9-46.9-46.9S3.1,24.1,3.1,50C3.1,62.3,7.9,74.1,16.6,82.8
	c8.8,9.1,20.8,14.1,33.4,14.1C62.6,96.9,74.7,91.9,83.4,82.8z"/>
<path class="st1" d="M90.6,50c0,8.3-2.5,16.4-7.3,23.2c-1.3,1.9-2.8,3.6-4.4,5.3c-0.3,0.3-0.6,0.6-0.9,0.9c-0.7,0.7-1.4,1.3-2.2,1.9
	c-2.9,2.4-6,4.3-9.2,5.8c-0.3,0.1-0.6,0.3-0.9,0.4c-0.3,0.1-0.6,0.2-0.9,0.4c-0.3,0.1-0.6,0.2-0.9,0.3c-0.6,0.2-1.1,0.4-1.7,0.6
	c-0.4,0.1-0.7,0.2-1,0.3c-0.9,0.3-1.8,0.5-2.8,0.7c-0.9,0.2-1.9,0.4-2.8,0.5c-0.3,0-0.6,0.1-0.9,0.1c-0.9,0.1-1.8,0.2-2.8,0.2
	c0,0-0.1,0-0.1,0c-1.3,0.1-2.5,0.1-3.8,0h0c-1.2,0-2.5-0.2-3.7-0.4c0,0-0.1,0-0.1,0c-2.2-0.3-4.3-0.8-6.4-1.4
	c-1.2-0.4-2.4-0.8-3.6-1.3c-0.3-0.1-0.6-0.2-0.9-0.4c-0.3-0.1-0.6-0.3-0.9-0.4c-0.3-0.1-0.6-0.3-0.9-0.4c-0.6-0.3-1.1-0.6-1.7-0.9
	c-0.3-0.2-0.6-0.3-0.8-0.5c-0.3-0.2-0.5-0.4-0.8-0.5c-0.3-0.2-0.5-0.3-0.8-0.5c-0.3-0.2-0.5-0.4-0.8-0.6s-0.5-0.4-0.8-0.6
	c-1.3-1-2.6-2.1-3.8-3.2v0c-0.1-0.1-0.2-0.2-0.3-0.3c-0.2-0.2-0.4-0.4-0.6-0.7c-1.6-1.6-3.1-3.4-4.4-5.2C11.9,66.5,9.3,58.3,9.4,50
	C9.4,27.6,27.6,9.4,50,9.4S90.6,27.6,90.6,50z"/>
<path class="st2" d="M68.8,34.4c0-10.4-8.4-18.8-18.8-18.8S31.2,24,31.2,34.4S39.6,53.1,50,53.1C60.4,53.1,68.7,44.7,68.8,34.4z
	 M37.5,34.4c0-6.9,5.6-12.5,12.5-12.5s12.5,5.6,12.5,12.5S56.9,46.9,50,46.9C43.1,46.9,37.5,41.3,37.5,34.4z"/>
<path class="st2" d="M49.3,47c-15.9,0.3-29.1,11.4-32.7,26.2c1.3,1.8,2.8,3.6,4.4,5.2c0.2,0.2,0.4,0.4,0.6,0.7
	c0.1,0.1,0.2,0.2,0.3,0.3c1-14.8,13.2-26.2,28-26.2c14.8,0,27,11.5,28,26.2c0.3-0.3,0.6-0.6,0.9-0.9c1.6-1.6,3.1-3.4,4.4-5.3
	C79.7,57.9,65.7,46.7,49.3,47z"/>
<rect x="1.8" y="44.6" transform="matrix(0.6923 -0.7216 0.7216 0.6923 -20.2942 48.6101)" class="st0" width="90" height="7"/>
</svg>
