<?xml version="1.0" encoding="utf-8"?>
<!-- Generator: Adobe Illustrator 25.3.1, SVG Export Plug-In . SVG Version: 6.00 Build 0)  -->
<svg version="1.1" id="Layer_1" xmlns="http://www.w3.org/2000/svg" xmlns:xlink="http://www.w3.org/1999/xlink" x="0px" y="0px"
	 viewBox="0 0 100 100" style="enable-background:new 0 0 100 100;" xml:space="preserve">
<style type="text/css">
	.st0{fill:#C90000;}
	.st1{fill:#FFFFFF;}
</style>
<path class="st0" d="M93,88.5h-6V53c0.3,0,0.6,0.1,0.9,0.1c1,0,2.1-0.2,3.1-0.7c2.5-1.2,4-3.7,4-6.4c0-2.2-1-4.2-2.7-5.6L51.2,7.9
	c-0.7-0.6-1.8-0.6-2.5,0L29,23.6V17c0-3.3-2.7-6-6-6h-4c-3.3,0-6,2.7-6,6v19.2l-5.3,4.2c-0.9,0.7-1.5,1.5-2,2.5S5,44.9,5,46
	c0,2.7,1.5,5.2,4,6.4c1.3,0.6,2.6,0.8,4,0.7v35.5H7c-1.1,0-2,0.9-2,2s0.9,2,2,2h86c1.1,0,2-0.9,2-2C95,89.4,94.1,88.5,93,88.5z"/>
<path class="st1" d="M17,17c0-1.1,0.9-2,2-2h4c1.1,0,2,0.9,2,2v9.7L17,33V17z"/>
<polygon class="st0" points="83,88.5 17,88.5 17,51.1 50,25 83,51.1 "/>
<path class="st1" d="M51.2,20.9c-0.7-0.6-1.8-0.6-2.5,0L14,48.4c-1,0.8-2.2,0.9-3.3,0.4C9.7,48.2,9,47.2,9,46c0-1,0.4-1.8,1.2-2.4
	L50,12l39.8,31.5C90.6,44.1,91,45,91,46c0,1.2-0.7,2.3-1.8,2.8c-1.1,0.5-2.3,0.4-3.3-0.4L51.2,20.9z"/>
<path class="st1" d="M50,68.7L50,68.7c-3.7,0-6.6-3-6.6-6.6V39.6c0-3.7,3-6.6,6.6-6.6h0c3.7,0,6.6,3,6.6,6.6v22.5
	C56.6,65.8,53.7,68.7,50,68.7z"/>
<circle class="st1" cx="50" cy="79.1" r="6.6"/>
</svg>
