<?xml version="1.0" encoding="utf-8"?>
<!-- Generator: Adobe Illustrator 25.3.1, SVG Export Plug-In . SVG Version: 6.00 Build 0)  -->
<svg version="1.1" xmlns="http://www.w3.org/2000/svg" xmlns:xlink="http://www.w3.org/1999/xlink" x="0px" y="0px"
	 viewBox="0 0 100 100" style="enable-background:new 0 0 100 100;" xml:space="preserve">
<style type="text/css">
	.st0{fill:#FFFFFF;}
	.st1{fill:#353535;}
	.st2{fill:#0082F7;}
	.st3{fill:#C90000;}
</style>
<g id="Layer_2">
	<rect x="6.2" y="31.2" class="st0" width="87.5" height="62.5"/>
</g>
<g id="Layer_1">
	<g>
		<path class="st1" d="M90.6,6.2H78.1c0-3.5-2.8-6.2-6.2-6.2h-6.2c-3.5,0-6.2,2.8-6.2,6.2H40.6c0-3.5-2.8-6.2-6.2-6.2h-6.2
			c-3.5,0-6.2,2.8-6.2,6.2H9.4C4.2,6.2,0,10.4,0,15.6v75c0,5.2,4.2,9.4,9.4,9.4l0,0h46.9c1.7,0,3.1-1.4,3.1-3.1s-1.4-3.1-3.1-3.1
			H9.4c-1.7,0-3.1-1.4-3.1-3.1V31.2h87.5v25c0,1.7,1.4,3.1,3.1,3.1s3.1-1.4,3.1-3.1V15.6C100,10.4,95.8,6.2,90.6,6.2z"/>
		<path class="st2" d="M6.2,25v-9.4c0-1.7,1.4-3.1,3.1-3.1h12.5v3.1c0,1.7,1.4,3.1,3.1,3.1c1.7,0,3.1-1.4,3.1-3.1V6.2h6.2v9.4
			c0,1.7,1.4,3.1,3.1,3.1s3.1-1.4,3.1-3.1v-3.1h18.8v3.1c0,1.7,1.4,3.1,3.1,3.1c1.7,0,3.1-1.4,3.1-3.1V6.2h6.2v9.4
			c0,1.7,1.4,3.1,3.1,3.1s3.1-1.4,3.1-3.1v-3.1h12.5c1.7,0,3.1,1.4,3.1,3.1V25H6.2z"/>
		<path class="st1" d="M34.4,43.8c0-1.7-1.4-3.1-3.1-3.1H18.8c-1.7,0-3.1,1.4-3.1,3.1v12.5c0,1.7,1.4,3.1,3.1,3.1h12.5
			c1.7,0,3.1-1.4,3.1-3.1V43.8z M28.1,53.1h-6.2v-6.2h6.2V53.1z"/>
		<path class="st1" d="M43.8,59.4h12.5c1.7,0,3.1-1.4,3.1-3.1V43.8c0-1.7-1.4-3.1-3.1-3.1H43.8c-1.7,0-3.1,1.4-3.1,3.1v12.5
			C40.6,58,42,59.4,43.8,59.4z M46.9,46.9h6.2v6.2h-6.2V46.9z"/>
		<path class="st1" d="M81.2,53.1c1.7,0,3.1-1.4,3.1-3.1v-6.2c0-1.7-1.4-3.1-3.1-3.1H68.8c-1.7,0-3.1,1.4-3.1,3.1v9.4
			c0,1.7,1.4,3.1,3.1,3.1s3.1-1.4,3.1-3.1v-6.2h6.2V50C78.1,51.7,79.5,53.1,81.2,53.1z"/>
		<path class="st1" d="M31.2,65.6H18.8c-1.7,0-3.1,1.4-3.1,3.1v12.5c0,1.7,1.4,3.1,3.1,3.1h12.5c1.7,0,3.1-1.4,3.1-3.1V68.8
			C34.4,67,33,65.6,31.2,65.6z M28.1,78.1h-6.2v-6.2h6.2V78.1z"/>
		<path class="st3" d="M84.8,76.5L81.2,80V68.8c0-1.7-1.4-3.1-3.1-3.1S75,67,75,68.8V80l-3.5-3.5c-1.2-1.2-3.2-1.2-4.4,0.1
			c-1.2,1.2-1.2,3.1,0,4.3l8.8,8.8c0.3,0.3,0.6,0.5,1,0.7c0.8,0.3,1.6,0.3,2.4,0c0.4-0.2,0.7-0.4,1-0.7l8.8-8.8
			c1.2-1.2,1.2-3.2-0.1-4.4C87.9,75.3,86,75.3,84.8,76.5z"/>
		<path class="st1" d="M53.1,71.9c1.7,0,3.1-1.4,3.1-3.1s-1.4-3.1-3.1-3.1h-9.4c-1.7,0-3.1,1.4-3.1,3.1v12.5c0,1.7,1.4,3.1,3.1,3.1
			H50c1.7,0,3.1-1.4,3.1-3.1s-1.4-3.1-3.1-3.1h-3.1v-6.2H53.1z"/>
		<path class="st3" d="M78.1,56.2C66,56.2,56.2,66,56.2,78.1S66,100,78.1,100S100,90.2,100,78.1C100,66,90.2,56.3,78.1,56.2z
			 M78.1,93.8c-8.6,0-15.6-7-15.6-15.6s7-15.6,15.6-15.6s15.6,7,15.6,15.6C93.7,86.8,86.8,93.7,78.1,93.8z"/>
	</g>
</g>
</svg>
