<?xml version="1.0" encoding="utf-8"?>
<!-- Generator: Adobe Illustrator 25.3.1, SVG Export Plug-In . SVG Version: 6.00 Build 0)  -->
<svg version="1.1" id="Layer_1" xmlns="http://www.w3.org/2000/svg" xmlns:xlink="http://www.w3.org/1999/xlink" x="0px" y="0px"
	 viewBox="0 0 100 100" style="enable-background:new 0 0 100 100;" xml:space="preserve">
<style type="text/css">
	.st0{fill:#353535;}
	.st1{fill:#FFFFFF;}
	.st2{fill:#C90000;}
</style>
<g>
	<path class="st0" d="M81.8,30.9C73.3,22.4,62,17.7,50,17.7s-23.3,4.7-31.8,13.2S5,50.7,5,62.7c0,6.2,1.2,12.2,3.7,17.9
		c0.4,1,1.4,1.6,2.4,1.6h77.7c1,0,2-0.6,2.5-1.6c2.5-5.7,3.7-11.7,3.7-17.9C95,50.7,90.3,39.4,81.8,30.9z"/>
	<path class="st1" d="M87,77H12.9c-1.7-4.6-2.6-9.4-2.7-14.2c0-21.9,17.8-39.7,39.7-39.7s39.7,17.8,39.7,39.7
		C89.6,67.7,88.7,72.5,87,77z"/>
	<path class="st0" d="M50,44.1c1.4,0,2.6-1.2,2.6-2.6V31c0-1.4-1.2-2.6-2.6-2.6s-2.6,1.1-2.6,2.6v10.5C47.4,42.9,48.5,44.1,50,44.1z
		"/>
	<path class="st0" d="M68.5,62.6c0,1.4,1.1,2.6,2.6,2.6h10.5c1.4,0,2.6-1.2,2.6-2.6S83.1,60,81.6,60H71.1
		C69.7,60,68.5,61.1,68.5,62.6z"/>
	<path class="st0" d="M28.9,60H18.4c-1.4,0-2.6,1.1-2.6,2.6c0,1.4,1.1,2.6,2.6,2.6h10.5c1.4,0,2.6-1.2,2.6-2.6S30.4,60,28.9,60z"/>
	<path class="st0" d="M29.4,38.3c-1-1-2.7-1-3.7,0s-1,2.7,0,3.7l7.5,7.5c0.6,0.5,1.2,0.8,1.9,0.8c0.6,0,1.3-0.3,1.8-0.8
		c1-1,1-2.7,0-3.7L29.4,38.3z"/>
	<path class="st0" d="M70.4,38.5c1-1,2.7-1,3.7,0s1,2.7,0,3.7l-7.5,7.5c-0.6,0.5-1.2,0.8-1.9,0.8c-0.6,0-1.3-0.3-1.8-0.8
		c-1-1-1-2.7,0-3.7L70.4,38.5z"/>
	<path class="st2" d="M16.9,52.4c0.2-1.2,1.4-2.2,2.7-2.1l32,1c0.1,0,0.3,0.1,0.4,0.1c2.1,0.4,3.9,1.6,5,3.4
		c1.2,1.7,1.6,3.9,1.2,5.9c-0.4,2.1-1.6,3.9-3.4,5c-1.7,1.2-3.9,1.5-5.9,1.2c-0.1,0-0.3-0.1-0.4-0.1l-30-11.4
		C17.4,54.9,16.7,53.7,16.9,52.4z"/>
	<path class="st2" d="M50.1,61.7c1.3,0.2,2.7-0.7,2.9-2.1c0.3-1.4-0.6-2.7-1.9-3.1l-16-0.5L50.1,61.7z"/>
</g>
</svg>
